<svg xmlns="http://www.w3.org/2000/svg" width="297" height="297" viewBox="0 0 297 297" fill="none">
  <g style="mix-blend-mode:plus-lighter" filter="url(#filter0_f_1700_1471)">
    <path d="M27 192.682V104.318C27 101.389 28.1637 98.5793 30.2351 96.5079C32.3066 94.4364 35.116 93.2727 38.0455 93.2727C40.9749 93.2727 43.7843 94.4364 45.8558 96.5079C47.9272 98.5793 49.0909 101.389 49.0909 104.318V192.682C49.0909 195.611 47.9272 198.421 45.8558 200.492C43.7843 202.564 40.9749 203.727 38.0455 203.727C35.116 203.727 32.3066 202.564 30.2351 200.492C28.1637 198.421 27 195.611 27 192.682ZM104.318 236.864V60.1364C104.318 57.2069 103.154 54.3975 101.083 52.326C99.0116 50.2546 96.2022 49.0909 93.2727 49.0909C90.3433 49.0909 87.5338 50.2546 85.4624 52.326C83.391 54.3975 82.2273 57.2069 82.2273 60.1364V236.864C82.2273 239.793 83.391 242.603 85.4624 244.674C87.5338 246.745 90.3433 247.909 93.2727 247.909C96.2022 247.909 99.0116 246.745 101.083 244.674C103.154 242.603 104.318 239.793 104.318 236.864ZM159.545 258.955V38.0455C159.545 35.116 158.382 32.3066 156.31 30.2351C154.239 28.1637 151.429 27 148.5 27C145.571 27 142.761 28.1637 140.69 30.2351C138.618 32.3066 137.455 35.116 137.455 38.0455V258.955C137.455 261.884 138.618 264.693 140.69 266.765C142.761 268.836 145.571 270 148.5 270C151.429 270 154.239 268.836 156.31 266.765C158.382 264.693 159.545 261.884 159.545 258.955ZM214.773 236.864V60.1364C214.773 57.2069 213.609 54.3975 211.538 52.326C209.466 50.2546 206.657 49.0909 203.727 49.0909C200.798 49.0909 197.988 50.2546 195.917 52.326C193.846 54.3975 192.682 57.2069 192.682 60.1364V236.864C192.682 239.793 193.846 242.603 195.917 244.674C197.988 246.745 200.798 247.909 203.727 247.909C206.657 247.909 209.466 246.745 211.538 244.674C213.609 242.603 214.773 239.793 214.773 236.864ZM258.955 93.2727C256.025 93.2727 253.216 94.4364 251.144 96.5079C249.073 98.5793 247.909 101.389 247.909 104.318V192.682C247.909 195.611 249.073 198.421 251.144 200.492C253.216 202.564 256.025 203.727 258.955 203.727C261.884 203.727 264.693 202.564 266.765 200.492C268.836 198.421 270 195.611 270 192.682V104.318C270 101.389 268.836 98.5793 266.765 96.5079C264.693 94.4364 261.884 93.2727 258.955 93.2727Z" fill="url(#paint0_linear_1700_1471)"/>
  </g>
  <defs>
    <filter id="filter0_f_1700_1471" x="0.9" y="0.9" width="295.2" height="295.2" filterUnits="userSpaceOnUse" color-interpolation-filters="sRGB">
      <feFlood flood-opacity="0" result="BackgroundImageFix"/>
      <feBlend mode="normal" in="SourceGraphic" in2="BackgroundImageFix" result="shape"/>
      <feGaussianBlur stdDeviation="13.05" result="effect1_foregroundBlur_1700_1471"/>
    </filter>
    <linearGradient id="paint0_linear_1700_1471" x1="148.5" y1="27" x2="148.5" y2="356.572" gradientUnits="userSpaceOnUse">
      <stop stop-color="#1947BC"/>
      <stop offset="1" stop-color="#0B4F56"/>
    </linearGradient>
  </defs>
</svg>